<svg width="132" height="40" viewBox="0 0 132 40" fill="none" xmlns="http://www.w3.org/2000/svg">
<g clip-path="url(#clip0_668_2939)">
<path d="M74.1783 10.7555C72.3213 10.7555 71.1824 11.9292 71.1824 13.8461V27.6302C71.1824 31.9565 69.0861 34.1202 65.0114 34.1202C60.8765 34.1202 58.7803 31.9565 58.7803 27.6302V13.8461C58.7803 11.9292 57.6413 10.7555 55.7844 10.7555C53.9274 10.7555 52.7885 11.9292 52.7885 13.8461V27.6302C52.7885 35.2331 57.4621 39.9924 64.9512 39.9924C72.5018 39.9924 77.1742 35.2331 77.1742 27.6302V13.8461C77.1742 11.9292 76.0426 10.7555 74.1783 10.7555Z" fill="#0050DC"/>
<path d="M87.6604 0C85.8035 0 84.6645 1.23572 84.6645 3.1526V36.8398C84.6645 38.7554 85.8035 39.9924 87.6604 39.9924C89.5174 39.9924 90.6563 38.7554 90.6563 36.8398V3.1526C90.6563 1.23572 89.5174 0 87.6604 0Z" fill="#0050DC"/>
<path d="M36.5497 3.77046C31.1581 3.77046 28.2211 6.79898 27.562 12.7952L25.5247 31.2804C25.3455 33.0732 24.3869 33.9999 22.649 33.9999C20.9112 33.9999 19.9489 33.0732 19.7734 31.2804L17.7361 12.7952C17.077 6.79898 14.1412 3.77046 8.74837 3.77046C3.35551 3.77046 0 7.23199 0 12.7952V36.8398C0 38.7554 1.13896 39.9924 2.9959 39.9924C4.85284 39.9924 5.9918 38.7554 5.9918 36.8398V12.7952C5.9918 10.8784 7.07062 9.70468 8.86742 9.70468C10.6053 9.70468 11.5037 10.7556 11.7443 12.7952L13.7816 31.2804C14.4407 37.0905 17.4366 39.9962 22.649 39.9962C27.8615 39.9962 30.8574 37.0905 31.5165 31.2804L33.5538 12.7952C33.7993 10.7556 34.6928 9.70468 36.4307 9.70468C38.2275 9.70468 39.3063 10.8784 39.3063 12.7952V36.8398C39.3063 38.7554 40.4453 39.9924 42.3022 39.9924C44.1592 39.9924 45.2981 38.7554 45.2981 36.8398V12.7952C45.2981 7.23199 41.9426 3.77046 36.5497 3.77046Z" fill="#0050DC"/>
<path d="M128.345 10.7555C126.488 10.7555 125.349 11.9913 125.349 13.9081V36.8398C125.349 38.7554 126.488 39.9924 128.345 39.9924C130.202 39.9924 131.341 38.7554 131.341 36.8398V13.9081C131.341 11.9913 130.202 10.7555 128.345 10.7555Z" fill="#0050DC"/>
<path d="M128.345 7.41683C130.364 7.41683 132 5.75652 132 3.70842C132 1.66031 130.364 0 128.345 0C126.326 0 124.69 1.66031 124.69 3.70842C124.69 5.75652 126.326 7.41683 128.345 7.41683Z" fill="#0050DC"/>
<path d="M116.422 33.5631C115.343 33.5631 114.204 34.1202 112.706 34.1202C109.231 34.1202 107.429 32.1426 107.429 28.248V16.6277H115.877C117.735 16.6277 118.873 15.5769 118.873 13.8423C118.873 12.1077 117.735 11.0569 115.877 11.0569H107.429V6.92306C107.429 5.00618 106.29 3.77046 104.493 3.77046C102.696 3.77046 101.556 5.00618 101.556 6.92306V11.0645H98.1467C96.2885 11.0645 95.1508 12.1153 95.1508 13.8499C95.1508 15.5845 96.2885 16.6353 98.1467 16.6353H101.561V28.2556C101.561 35.4876 105.816 40 112.706 40C115.463 40 119.177 39.196 119.177 36.5385C119.177 34.9229 118.159 33.5631 116.422 33.5631Z" fill="#0050DC"/>
</g>
<defs>
<clipPath id="clip0_668_2939">
<rect width="132" height="40" fill="white"/>
</clipPath>
</defs>
</svg>
